<?xml version="1.0" encoding="UTF-8" standalone="no"?>
<svg
   height="16"
   viewBox="0 0 16 16"
   width="16"
   version="1.1"
   id="svg1"
   sodipodi:docname="CanvasLayer.svg"
   inkscape:version="1.3 (0e150ed6c4, 2023-07-21)"
   xmlns:inkscape="http://www.inkscape.org/namespaces/inkscape"
   xmlns:sodipodi="http://sodipodi.sourceforge.net/DTD/sodipodi-0.dtd"
   xmlns="http://www.w3.org/2000/svg"
   xmlns:svg="http://www.w3.org/2000/svg">
  <defs
     id="defs1" />
  <sodipodi:namedview
     id="namedview1"
     pagecolor="#505050"
     bordercolor="#eeeeee"
     borderopacity="1"
     inkscape:showpageshadow="0"
     inkscape:pageopacity="0"
     inkscape:pagecheckerboard="0"
     inkscape:deskcolor="#505050"
     inkscape:zoom="51.839766"
     inkscape:cx="7.8028902"
     inkscape:cy="6.684058"
     inkscape:window-width="2560"
     inkscape:window-height="1369"
     inkscape:window-x="-8"
     inkscape:window-y="284"
     inkscape:window-maximized="1"
     inkscape:current-layer="svg1" />
  <path
     d="M 3,1 A 2,2 0 0 0 1,3 V 9 H 2 V 3 A 1,1 0 0 1 3,2 H 9 V 1 Z m -0.08,9 c -0.263,0.3 -0.42,0.73 -0.42,1.238 0,1.628 -3.138,-0.178 -0.337,2.67 0.884,0.9 2.654,0.67 3.538,-0.228 a 2.33,2.33 0 0 0 0,-3.256 C 4.601,9.305 3.501,9.34 2.921,10 Z m 2.381,-1.61 2.4,2.441 6.802,-6.917 a 1.7119699,1.7119699 0 0 0 -2.4,-2.442 z M 14.001,7 v 6 a 1,1 0 0 1 -1,1 H 7 v 1 h 6 a 2,2 0 0 0 2,-2 V 7 Z"
     fill="#e0e0e0"
     id="path1"
     style="display:none" />
  <path
     d="M 7.999999,3.2000012 V 0.80000107 M 11.199998,3.2000012 V 1.6000007 M 4.7999996,3.2000012 V 1.6000007 m 7.9999994,6.3999959 h 2.399998 m -2.399998,3.1999984 h 1.599999 M 12.799999,4.7999987 h 1.599999 M 7.999999,12.799996 v 2.399998 M 4.7999996,12.799996 v 1.599997 m 6.3999984,-1.599997 v 1.599997 M 3.2000024,7.9999966 H 0.80000107 M 3.2000024,4.7999987 H 1.6000011 M 3.2000024,11.199995 H 1.6000011 m 11.1999979,0.8 V 3.9999991 c 0,-0.4418274 -0.358172,-0.7999979 -0.800001,-0.7999979 H 9.8815322 4.0000005 c -0.4418276,0 -0.7999981,0.3581705 -0.7999981,0.7999979 v 7.9999959 c 0,0.441829 0.3581705,0.800001 0.7999981,0.800001 h 7.9999975 c 0.441829,0 0.800001,-0.358172 0.800001,-0.800001 z M 9.5999993,6.3999991 H 6.4000009 v 3.1999982 h 3.1999984 v -1.153658 z"
     style="fill:none;stroke:#e0e0e0;stroke-width:1.60001;stroke-linecap:round;stroke-linejoin:round;stroke-opacity:1"
     id="path1-1" />
</svg>
